# xmcd
#
# Track frame offsets:
#	150
#	11649
#	21846
#	36500
#	53015
#	64821
#	84389
#	107722
#	121063
#	135125
#	148015
#
# Disc length: 2259 seconds
# Revision: 2
# Processed by: cddbd v1.5.2PL0 Copyright (c) Steve Scherf et al.
# Submitted via: dBpowerAMP V12.0
#
DISCID=8b08d10b
DTITLE=Various Artist - Blues Legends
DYEAR=1996
DGENRE=Blues
TTITLE0=John Lee Hooker - Boom Boom
TTITLE1=Screaming Jay Hawkins - I Put a Spell on You
TTITLE2=B.B. King - Mr. Pawnbroker
TTITLE3=Bukka White - Shake 'Em on Down
TTITLE4=Lightning Slim - Rooster Blues
TTITLE5=John Mayhill - Road Show
TTITLE6=Lightning Hopkins - Blues For Gamblers
TTITLE7=Cissy Houston - Making Love
TTITLE8=Memphis Slim - Messin' Around
TTITLE9=Jimmy Reed - Shame Shame Shame
TTITLE10=T-Bone Walker - Stormy Monday Blues
EXTD=
EXTT0=
EXTT1=
EXTT2=
EXTT3=
EXTT4=
EXTT5=
EXTT6=
EXTT7=
EXTT8=
EXTT9=
EXTT10=
PLAYORDER=
